<svg width="28" height="28" viewBox="0 0 28 28" fill="none" xmlns="http://www.w3.org/2000/svg">
<g clip-path="url(#clip0_389_3602)">
<path d="M28 14.0373C28 14.0248 28 14.0124 28 14C28 6.28081 21.7192 0 14 0C6.28081 0 0 6.28081 0 14C0 21.7192 6.28081 28 14 28C21.7192 28 27.9221 21.796 27.9977 14.1423C27.9977 14.114 28 14.0858 28 14.0565C28 14.0497 28 14.044 28 14.0373ZM14 26.4194C7.15242 26.4194 1.58065 20.8476 1.58065 14C1.58065 7.15242 7.15242 1.58065 14 1.58065C18.8729 1.58065 23.0989 4.4021 25.1323 8.49823C24.1805 7.81742 23.0481 7.37484 21.8208 7.25855C19.9252 5.06258 17.1218 3.67048 14 3.67048C8.30403 3.67048 3.66935 8.30516 3.66935 14.0011C3.66935 19.6971 8.30403 24.3318 14 24.3318C19.696 24.3318 24.3306 19.6971 24.3306 14.0011C24.3306 13.9277 24.3295 13.8532 24.3284 13.7798L24.3227 13.7742C24.2064 12.1055 22.8121 10.7834 21.114 10.7834C20.7629 10.7834 20.4253 10.841 20.1092 10.9448C19.8055 10.3397 19.4137 9.78645 18.9519 9.30097C19.626 8.98484 20.3779 8.80758 21.1705 8.80758C24.0585 8.80758 26.4103 11.1526 26.4205 14.0384C26.4205 14.0858 26.4194 14.1332 26.4182 14.1806C26.4137 14.3895 26.3956 14.595 26.3674 14.7971L26.3945 14.7847C25.9892 21.2687 20.5856 26.4205 14.0011 26.4205L14 26.4194ZM20.9548 19.3019C18.9056 19.2195 17.1568 17.9561 16.3676 16.1768C16.8948 15.6032 17.2177 14.8389 17.2177 14C17.2177 12.2263 15.7737 10.7823 14 10.7823C12.2263 10.7823 10.7823 12.2263 10.7823 14C10.7823 15.7737 12.2263 17.2177 14 17.2177C14.3613 17.2177 14.7079 17.1568 15.0319 17.0473C15.3402 17.6773 15.7421 18.2531 16.2197 18.7566C15.5445 19.0727 14.7926 19.25 14 19.25C11.1052 19.25 8.75 16.8948 8.75 14C8.75 11.1052 11.1052 8.75 14 8.75C16.1102 8.75 17.9324 10.0021 18.7656 11.8018C18.226 12.3776 17.8952 13.151 17.8952 14C17.8952 15.7737 19.3392 17.2177 21.1129 17.2177C21.4979 17.2177 21.8682 17.15 22.2103 17.0247C21.9055 17.8489 21.4787 18.6155 20.9537 19.3019H20.9548ZM14 15.6371C13.0968 15.6371 12.3629 14.9032 12.3629 14C12.3629 13.0968 13.0968 12.3629 14 12.3629C14.9032 12.3629 15.6371 13.0968 15.6371 14C15.6371 14.9032 14.9032 15.6371 14 15.6371ZM22.75 14C22.75 14.9032 22.0161 15.6371 21.1129 15.6371C20.2097 15.6371 19.4758 14.9032 19.4758 14C19.4758 13.0968 20.2097 12.3629 21.1129 12.3629C22.0161 12.3629 22.75 13.0968 22.75 14ZM17.631 8.21823C16.5787 7.55435 15.3334 7.16935 14 7.16935C10.2335 7.16935 7.16935 10.2335 7.16935 14C7.16935 17.7665 10.2335 20.8306 14 20.8306C15.295 20.8306 16.5065 20.4671 17.5395 19.8382C18.1695 20.2345 18.8684 20.5315 19.6135 20.7053C18.0927 21.98 16.135 22.75 14 22.75C9.17564 22.75 5.25 18.8244 5.25 14C5.25 9.17564 9.17564 5.25 14 5.25C16.1835 5.25 18.1819 6.055 19.7163 7.38274C18.9689 7.54532 18.2655 7.83097 17.631 8.21823Z" fill="white"/>
</g>
<defs>
<clipPath id="clip0_389_3602">
<rect width="28" height="28" fill="white"/>
</clipPath>
</defs>
</svg>
