<svg width="27" height="21" viewBox="0 0 27 21" fill="none" xmlns="http://www.w3.org/2000/svg">
<g clip-path="url(#clip0_82_4458)">
<path d="M22.8716 1.75872C21.0977 0.925273 19.225 0.333999 17.3013 0C17.0381 0.482913 16.7999 0.979766 16.5878 1.48848C14.5387 1.17161 12.4549 1.17161 10.4058 1.48848C10.1936 0.979819 9.95541 0.482972 9.69229 0C7.76739 0.336819 5.89344 0.929497 4.11772 1.76308C0.592476 7.1155 -0.363163 12.335 0.114656 17.4804C2.17913 19.0457 4.48986 20.2362 6.94642 21C7.49956 20.2365 7.98902 19.4266 8.40961 18.5788C7.61076 18.2726 6.83974 17.8948 6.10545 17.4499C6.29871 17.306 6.48771 17.1578 6.67034 17.014C8.80694 18.0451 11.1389 18.5798 13.5 18.5798C15.861 18.5798 18.193 18.0451 20.3296 17.014C20.5144 17.1687 20.7034 17.3169 20.8945 17.4499C20.1588 17.8955 19.3864 18.274 18.5861 18.5809C19.0062 19.4284 19.4957 20.2376 20.0493 21C22.5079 20.2392 24.8205 19.0493 26.8853 17.4826C27.4459 11.5156 25.9275 6.34402 22.8716 1.75872ZM9.01485 14.316C7.68332 14.316 6.58327 13.076 6.58327 11.5504C6.58327 10.0249 7.6451 8.77397 9.0106 8.77397C10.3761 8.77397 11.4677 10.0249 11.4443 11.5504C11.4209 13.076 10.3719 14.316 9.01485 14.316ZM17.9851 14.316C16.6515 14.316 15.5557 13.076 15.5557 11.5504C15.5557 10.0249 16.6175 8.77397 17.9851 8.77397C19.3527 8.77397 20.4358 10.0249 20.4124 11.5504C20.3891 13.076 19.3421 14.316 17.9851 14.316Z" fill="#5865F2"/>
</g>
<defs>
<clipPath id="clip0_82_4458">
<rect width="27" height="21" fill="white"/>
</clipPath>
</defs>
</svg>
