<svg width="22" height="22" viewBox="0 0 22 22" fill="none" xmlns="http://www.w3.org/2000/svg">
<g clip-path="url(#clip0_82_4454)">
<path d="M21.3316 11.2403C21.3325 10.522 21.2719 9.80488 21.1503 9.09692H11.2185V13.1568H16.907C16.7906 13.8052 16.5442 14.4233 16.1827 14.9739C15.8212 15.5244 15.3521 15.996 14.8036 16.3602V18.9955H18.1985C20.1863 17.161 21.3316 14.4481 21.3316 11.2403Z" fill="#4285F4"/>
<path d="M11.2187 21.5416C14.0607 21.5416 16.4537 20.6076 18.1987 18.9971L14.8038 16.3618C13.8588 17.003 12.6419 17.369 11.2187 17.369C8.4717 17.369 6.14015 15.5155 5.30641 13.0178H1.80908V15.7337C2.68563 17.4795 4.02973 18.9472 5.69131 19.9728C7.35289 20.9984 9.26655 21.5416 11.2187 21.5416Z" fill="#34A853"/>
<path d="M5.30624 13.0179C4.86547 11.7091 4.86547 10.2918 5.30624 8.98294V6.26709H1.80891C1.07153 7.73578 0.6875 9.35672 0.6875 11.0004C0.6875 12.6441 1.07153 14.2651 1.80891 15.7338L5.30624 13.0179Z" fill="#FBBC04"/>
<path d="M11.2187 4.63155C12.7205 4.60699 14.1718 5.17498 15.2587 6.21274L18.2645 3.20408C16.3585 1.41217 13.8334 0.428375 11.2187 0.458944C9.26655 0.459033 7.35289 1.00219 5.69131 2.02779C4.02973 3.05338 2.68563 4.52104 1.80908 6.26691L5.30641 8.98277C6.14015 6.48506 8.4717 4.63155 11.2187 4.63155Z" fill="#EA4335"/>
</g>
<defs>
<clipPath id="clip0_82_4454">
<rect width="22" height="22" rx="11" fill="white"/>
</clipPath>
</defs>
</svg>
