<svg width="63" height="24" viewBox="0 0 63 24" fill="none" xmlns="http://www.w3.org/2000/svg">
<g clip-path="url(#clip0_389_3514)">
<path d="M17.8792 8.00939C16.2695 6.63429 14.0274 5.82637 11.426 5.82637C4.62784 5.82637 0 11.0006 0 11.0006L1.29348 13.0419C1.29348 13.0419 2.01214 13.0986 1.63844 11.8937C1.96896 11.2842 2.61582 10.4477 3.88055 9.49788V23.0786C3.33436 23.2344 2.61582 23.518 3.10439 24H6.85564C7.34434 23.518 6.56818 23.2204 6.09404 23.0786V19.8748C6.09404 19.8748 8.66656 20.8671 11.4261 20.8671C13.855 20.8671 16.0684 20.1583 17.7211 18.8683C19.374 17.5925 20.4232 15.6787 20.4232 13.4956C20.4088 11.3549 19.4746 9.38449 17.8793 8.00951L17.8792 8.00939ZM15.8958 17.8193C14.7604 18.925 13.1075 19.6338 11.196 19.6196C9.06889 19.6196 7.27228 19.2084 6.0938 18.6415V8.44886C7.3874 7.54163 9.50009 6.97457 11.196 6.98878C13.2657 6.98878 14.8897 7.75433 15.982 8.93082C17.0743 10.1076 17.678 11.6668 17.678 13.4814C17.6635 15.2393 17.0312 16.6993 15.8958 17.8193V17.8193ZM23.7143 5.84057H22.9525C22.6076 5.84057 22.3345 6.10996 22.3345 6.45012V20.3424C22.3345 20.6827 22.6076 20.952 22.9525 20.952H23.7143C24.0592 20.952 24.3322 20.6827 24.3322 20.3424V6.45012C24.3322 6.10984 24.0592 5.84057 23.7143 5.84057V5.84057ZM43.6486 5.84057H42.8869C42.542 5.84057 42.2689 6.10996 42.2689 6.45012V20.3424C42.2689 20.6827 42.542 20.952 42.8869 20.952H43.6486C43.9936 20.952 44.2666 20.6827 44.2666 20.3424V6.45012C44.2666 6.10984 43.9936 5.84057 43.6486 5.84057V5.84057ZM61.5853 5.84057H60.8811C60.3206 5.84057 60.1624 5.91135 59.9181 6.40751C59.6737 6.90367 54.1404 17.6917 54.1404 17.6917C54.1404 17.6917 48.6214 6.88959 48.3627 6.40751C48.1184 5.91135 47.9604 5.84057 47.3999 5.84057H46.6955C46.1782 5.84057 45.8908 6.06735 46.1925 6.64861C46.4944 7.22976 53.2925 20.3993 53.2925 20.3993C53.4649 20.7396 53.7955 20.9379 54.1549 20.9379C54.5141 20.9379 54.8303 20.7396 55.0171 20.3993C55.0316 20.371 61.8153 7.22988 62.1171 6.64861C62.3901 6.06735 62.1026 5.84045 61.5853 5.84045V5.84057ZM37.6266 20.4277C37.9141 20.7962 38.1153 20.9379 38.6758 20.9379H39.8256C40.5586 20.9379 40.2855 20.612 40.0843 20.3568C39.5813 19.6905 34.5653 13.4105 34.5653 13.4105C34.5653 13.4105 39.7538 7.08796 40.2712 6.42171C40.4724 6.15233 40.731 5.84057 40.0125 5.84057H38.8626C38.3021 5.84057 38.1009 5.98225 37.8136 6.35082C37.5261 6.71939 33.3006 11.837 33.3006 11.837C33.3006 11.837 29.0752 6.71939 28.7877 6.35082C28.5003 5.98225 28.299 5.84057 27.7385 5.84057H26.5888C25.8701 5.84057 26.1289 6.16653 26.3301 6.42171C26.8331 7.08796 32.0359 13.4105 32.0359 13.4105C32.0359 13.4105 26.8761 19.6905 26.3588 20.3568C26.1576 20.6262 25.8989 20.9379 26.6175 20.9379H27.7673C28.3278 20.9379 28.529 20.7962 28.8165 20.4277C29.1039 20.0591 33.3006 14.9841 33.3006 14.9841C33.3006 14.9841 37.3392 20.0732 37.6266 20.4277V20.4277ZM23.3406 0C22.8807 0 22.507 0.155878 22.2052 0.453673C21.9033 0.751224 21.7453 1.1198 21.7453 1.57359C21.7453 2.02714 21.9033 2.39571 22.2052 2.69351C22.507 2.99106 22.8807 3.14706 23.3406 3.14706C23.8005 3.14706 24.1742 2.99118 24.476 2.69351C24.7779 2.39571 24.9359 2.02714 24.9359 1.57359C24.9359 1.11992 24.7779 0.751347 24.476 0.453673C24.1742 0.155878 23.7862 0 23.3406 0ZM43.2749 0C42.8151 0 42.4414 0.155878 42.1396 0.453673C41.8377 0.751224 41.6797 1.1198 41.6797 1.57359C41.6797 2.02714 41.8377 2.39571 42.1396 2.69351C42.4414 2.99106 42.8151 3.14706 43.2749 3.14706C43.7349 3.14706 44.1086 2.99118 44.4104 2.69351C44.7123 2.39571 44.8703 2.02714 44.8703 1.57359C44.8703 1.11992 44.7123 0.751347 44.4104 0.453673C44.1086 0.155878 43.7206 0 43.2749 0Z" fill="white"/>
</g>
<defs>
<clipPath id="clip0_389_3514">
<rect width="62.2222" height="24" fill="white"/>
</clipPath>
</defs>
</svg>
