<?xml version="1.0" standalone="no"?>
<!DOCTYPE svg PUBLIC "-//W3C//DTD SVG 20010904//EN"
 "http://www.w3.org/TR/2001/REC-SVG-20010904/DTD/svg10.dtd">
<svg version="1.0" xmlns="http://www.w3.org/2000/svg"
 width="1392.000000pt" height="1392.000000pt" viewBox="0 0 1392.000000 1392.000000"
 preserveAspectRatio="xMidYMid meet">
<metadata>
Created by potrace 1.14, written by Peter Selinger 2001-2017
</metadata>
<g transform="translate(0.000000,1392.000000) scale(0.100000,-0.100000)"
fill="#000000" stroke="none">
<path d="M2379 9516 c-2 -2 -35 -6 -72 -10 -92 -9 -125 -14 -247 -37 -123 -25
-113 -22 -170 -38 -25 -7 -52 -15 -60 -17 -21 -5 -161 -52 -180 -61 -8 -3 -17
-7 -20 -8 -41 -14 -182 -77 -240 -108 -95 -50 -135 -72 -145 -79 -5 -4 -53
-36 -105 -70 -52 -34 -97 -64 -100 -67 -3 -4 -23 -19 -45 -36 -22 -16 -42 -31
-45 -34 -3 -4 -34 -31 -70 -61 -93 -79 -193 -181 -295 -301 -21 -25 -111 -144
-133 -175 -58 -86 -91 -141 -92 -151 0 -7 -3 -13 -7 -13 -5 0 -13 -10 -19 -23
-5 -12 -29 -58 -51 -102 -56 -108 -103 -213 -103 -231 0 -8 -5 -14 -12 -14 -6
0 -9 -3 -6 -6 3 -3 -9 -48 -28 -100 -19 -52 -31 -94 -28 -94 4 0 2 -6 -4 -13
-6 -7 -13 -26 -16 -42 -2 -17 -5 -30 -6 -30 -2 0 -3 -4 -30 -140 -13 -60 -24
-121 -26 -135 -16 -138 -19 -200 -19 -360 1 -198 8 -304 31 -425 3 -16 8 -43
10 -60 21 -124 127 -467 172 -551 6 -10 31 -60 56 -111 25 -50 54 -106 66
-125 11 -18 23 -40 27 -48 12 -29 136 -205 191 -275 241 -301 538 -538 882
-706 99 -48 274 -119 309 -126 14 -2 29 -7 35 -11 6 -3 16 -7 21 -9 6 -1 42
-11 80 -22 73 -20 197 -47 262 -56 21 -3 49 -8 61 -11 88 -19 483 -26 612 -11
129 15 145 17 170 23 14 3 36 8 50 10 79 13 312 74 355 93 11 5 36 15 55 21
19 7 49 19 65 25 39 17 69 28 75 29 17 4 256 130 258 137 2 5 8 9 14 9 24 0
295 192 378 267 36 32 208 203 236 234 17 19 65 79 107 134 43 55 81 105 85
110 46 57 177 294 235 425 85 191 161 448 183 625 3 28 8 52 9 55 2 3 6 34 10
70 3 36 8 88 11 115 6 56 6 54 5 115 0 25 0 52 0 60 2 90 -20 336 -36 412 -4
15 -8 40 -10 57 -2 16 -16 76 -30 133 -15 57 -28 110 -30 118 -5 19 -47 140
-70 200 -34 89 -50 122 -159 335 -38 73 -188 292 -241 351 -5 6 -28 33 -50 60
-57 69 -267 273 -287 280 -10 3 -18 9 -18 13 0 15 -249 193 -336 240 -134 73
-190 102 -275 138 -110 48 -222 89 -299 110 -115 31 -207 53 -245 58 -22 4
-47 8 -55 10 -8 2 -37 7 -65 10 -27 4 -61 9 -75 12 -29 6 -455 15 -461 9z"/>
<path d="M12129 8886 c-2 -2 -64 -7 -138 -10 -73 -4 -137 -8 -140 -11 -4 -2
-30 -6 -59 -9 -28 -3 -81 -12 -117 -21 -36 -9 -74 -18 -83 -20 -9 -2 -18 -4
-19 -5 -2 -2 -6 -3 -10 -4 -30 -7 -150 -50 -157 -57 -6 -5 -17 -9 -25 -9 -23
0 -244 -113 -269 -137 -7 -7 -17 -13 -22 -13 -4 0 -55 -35 -112 -78 -273 -206
-481 -476 -604 -784 -31 -79 -51 -135 -60 -170 -1 -5 -2 -9 -4 -10 -2 -3 -5
-19 -13 -60 -3 -15 -8 -31 -10 -36 -3 -4 -8 -27 -12 -52 -4 -25 -8 -47 -10
-50 -5 -8 -17 -138 -21 -220 -1 -41 -4 -77 -5 -80 -1 -3 -1 -8 -1 -11 1 -4 4
-53 7 -110 3 -57 7 -115 10 -129 3 -14 7 -43 10 -64 7 -56 44 -205 60 -243 8
-19 14 -37 15 -41 2 -35 93 -242 143 -327 178 -298 396 -515 689 -684 59 -33
110 -61 114 -61 4 0 30 -11 58 -25 63 -30 203 -80 256 -90 8 -2 15 -4 15 -5 0
-2 26 -8 60 -15 11 -2 31 -6 45 -9 14 -4 41 -8 60 -11 19 -3 45 -7 58 -9 20
-4 232 -19 257 -18 103 4 227 16 285 27 13 3 42 7 64 11 22 3 44 8 48 11 5 2
20 7 34 9 15 3 70 19 123 36 53 18 98 32 101 33 37 11 204 94 280 140 192 115
411 315 532 485 10 14 31 44 48 67 16 24 30 47 30 53 0 5 3 10 8 10 4 0 12 10
18 23 6 12 29 58 51 102 62 122 107 231 118 285 4 19 12 41 17 48 6 6 8 12 5
12 -3 0 0 21 8 48 57 198 68 531 25 777 -16 86 -60 245 -90 320 -129 324 -339
606 -596 800 -43 33 -80 63 -82 68 -2 4 -8 7 -13 7 -5 0 -32 15 -61 33 -71 45
-188 107 -188 100 0 -3 -7 1 -16 8 -9 7 -33 19 -53 27 -190 70 -278 95 -421
119 -39 6 -141 16 -185 17 -22 1 -43 4 -46 9 -3 4 -7 5 -10 3z"/>
<path d="M7668 8405 c-3 -3 -35 -7 -71 -10 -120 -7 -176 -18 -297 -57 -79 -25
-270 -116 -270 -129 0 -5 -6 -9 -12 -9 -15 0 -115 -76 -180 -136 -75 -70 -207
-232 -232 -284 -4 -8 -12 -24 -19 -35 -20 -31 -55 -99 -57 -110 -1 -5 -11 -27
-21 -47 -10 -20 -30 -75 -44 -123 -14 -48 -27 -90 -29 -93 -2 -4 -7 -31 -10
-61 -4 -29 -9 -57 -11 -61 -4 -6 -16 -151 -16 -195 -2 -95 22 -280 50 -391 36
-144 138 -352 236 -483 23 -30 222 -229 245 -244 154 -103 180 -118 300 -170
33 -14 97 -36 123 -41 7 -2 19 -6 27 -9 42 -15 228 -39 305 -39 98 1 292 33
353 58 17 7 32 11 32 9 0 -13 251 110 280 137 11 10 23 18 27 18 4 0 23 14 42
30 18 17 37 30 41 30 7 0 127 120 180 179 36 42 126 177 162 246 52 99 116
283 133 383 3 17 7 46 10 62 3 17 8 64 10 106 3 42 8 80 11 85 3 5 2 9 -3 9
-4 0 -8 33 -8 73 1 90 -22 242 -44 300 -6 15 -8 27 -6 27 3 0 -2 17 -10 38 -9
20 -16 38 -15 40 7 15 -112 263 -135 282 -8 7 -15 17 -15 23 0 12 -69 104
-120 161 -52 58 -119 120 -175 163 -28 21 -51 41 -53 46 -2 4 -8 7 -12 7 -5 0
-26 12 -47 26 -86 59 -304 145 -402 160 -20 3 -43 7 -52 10 -9 3 -54 7 -99 10
-46 2 -86 7 -90 9 -4 2 -9 2 -12 0z"/>
</g>
</svg>
